<?xml version="1.0" encoding="UTF-8" standalone="no"?><!DOCTYPE svg PUBLIC "-//W3C//DTD SVG 1.1//EN" "http://www.w3.org/Graphics/SVG/1.1/DTD/svg11.dtd"><svg width="100%" height="100%" viewBox="0 0 15 110" version="1.1" xmlns="http://www.w3.org/2000/svg" xmlns:xlink="http://www.w3.org/1999/xlink" xml:space="preserve" xmlns:serif="http://www.serif.com/" style="fill-rule:evenodd;clip-rule:evenodd;stroke-linejoin:round;stroke-miterlimit:2;"><g><path d="M7.373,0c-0,0 7.372,15.11 7.372,18.627c0,3.518 -3.303,6.373 -7.372,6.373c-4.069,0 -7.373,-2.855 -7.373,-6.373c-0,-3.517 7.373,-18.627 7.373,-18.627Z"/><path d="M10.373,24.462c0.15,-1.599 -6.151,-1.599 -6,-0c1.166,12.423 1,74.538 1,74.538l4,0c-0,0 -0.167,-62.115 1,-74.538Z"/><path d="M7.373,98c2.759,0 5,2.24 5,5c-0,2.76 -2.241,7 -5,7c-2.76,0 -5,-4.24 -5,-7c-0,-2.76 2.24,-5 5,-5Z"/></g></svg>