<?xml version="1.0" encoding="UTF-8" standalone="no"?><!DOCTYPE svg PUBLIC "-//W3C//DTD SVG 1.1//EN" "http://www.w3.org/Graphics/SVG/1.1/DTD/svg11.dtd"><svg width="100%" height="100%" viewBox="0 0 1920 1080" version="1.1" xmlns="http://www.w3.org/2000/svg" xmlns:xlink="http://www.w3.org/1999/xlink" xml:space="preserve" xmlns:serif="http://www.serif.com/" style="fill-rule:evenodd;clip-rule:evenodd;stroke-linejoin:round;stroke-miterlimit:2;"><rect id="Grandfather-clock" serif:id="Grandfather clock" x="0" y="0" width="1920" height="1080" style="fill:none;"/><g id="Grandfather-clock1" serif:id="Grandfather clock"><g id="Body"><path d="M1111.71,680l-302.428,0l-18.286,400l339,0l-18.286,-400Z" style="fill:#4e2211;"/><path d="M1129.27,1080l-18.997,-410.089l19.979,-0.911l18.997,411l-19.979,-0Z" style="fill:url(#_Linear1);"/><path d="M791.253,1080l18.997,-409.089l-19.979,-0.911l-18.997,410l19.979,-0Z" style="fill:url(#_Linear2);"/><path d="M1140,669.502c-0,5.798 -4.7,10.498 -10.498,10.498c-52.538,-0 -286.466,-0 -339.004,-0c-5.798,-0 -10.498,-4.7 -10.498,-10.498c0,-0.001 0,-0.003 0,-0.004c0,-5.798 4.7,-10.498 10.498,-10.498c52.538,0 286.466,0 339.004,0c5.798,0 10.498,4.7 10.498,10.498c0,0.001 0,0.003 0,0.004Z" style="fill:url(#_Linear3);"/></g><g id="Clock"><path d="M1180,220l-440,0l20,420l400,0l20,-420Z" style="fill:#4e2211;"/><path d="M1160,560c0,0 -160.333,40 -200,40c-39.667,0 -200,-40 -200,-40l0,60l400,0l0,-60Z" style="fill:url(#_Linear4);"/><path d="M739.06,240l140.522,17.096c-0,-0 -59.721,22.492 -79.582,42.904c-19.93,20.484 -40,80 -40,80l-20.94,-140Z" style="fill:url(#_Linear5);"/><path d="M1180,240l-140.521,17.096c-0,-0 59.721,22.492 79.581,42.904c19.931,20.484 40,80 40,80l20.94,-140Z" style="fill:url(#_Linear6);"/><path d="M761.175,640.057c5.323,-0.344 10.292,-2.788 13.813,-6.796c3.521,-4.007 5.306,-9.249 4.962,-14.573c-4.419,-68.418 -18.861,-292.015 -23.258,-360.085c-0.708,-10.959 -10.166,-19.269 -21.124,-18.561c-0.001,0 -0.002,0 -0.002,0c-5.324,0.344 -10.293,2.789 -13.814,6.796c-3.521,4.007 -5.306,9.249 -4.962,14.573c4.419,68.418 18.862,292.015 23.258,360.085c0.708,10.959 10.166,19.269 21.125,18.561c0,-0 0.001,-0 0.002,-0Z" style="fill:url(#_Linear7);"/><path d="M1155.45,639.958c-11.022,-0.712 -19.379,-10.224 -18.667,-21.246c4.41,-68.281 18.866,-292.093 23.265,-360.201c0.708,-10.959 10.166,-19.269 21.125,-18.561c0,0 0.001,0 0.002,0c5.323,0.344 10.292,2.789 13.813,6.796c3.521,4.008 5.306,9.25 4.962,14.573c-4.416,68.379 -18.845,291.762 -23.251,359.969c-0.711,11.023 -10.224,19.382 -21.247,18.67c-0.001,-0 -0.001,-0 -0.002,-0Z" style="fill:url(#_Linear8);"/><path d="M1220,640c-0,-11.046 -8.954,-20 -20,-20c-82.68,0 -397.326,0 -480.002,0c-5.304,-0 -10.39,2.107 -14.141,5.857c-3.75,3.751 -5.857,8.837 -5.857,14.141c-0,0.001 -0,0.003 -0,0.004c0,5.304 2.107,10.39 5.857,14.141c3.751,3.75 8.837,5.857 14.141,5.857c82.676,0 397.322,0 480.002,0c11.046,-0 20,-8.954 20,-20c0,0 0,0 0,-0Z" style="fill:url(#_Linear9);"/><path d="M1240,240c-0,11.046 -8.954,20 -20,20l-520,-0c-11.046,-0 -20,-8.954 -20,-20l0,-0c0,-11.046 8.954,-20 20,-20l520,-0c11.046,0 20,8.954 20,20l0,0Z" style="fill:url(#_Linear10);"/><g><g><g><circle cx="960" cy="430" r="150" style="fill:#f1eae1;"/><path d="M960,280c82.787,-0 150,67.213 150,150c0,82.787 -67.213,150 -150,150c-82.787,-0 -150,-67.213 -150,-150c0,-82.787 67.213,-150 150,-150Zm0,15c74.509,0 135,60.491 135,135c-0,74.509 -60.491,135 -135,135c-74.509,-0 -135,-60.491 -135,-135c0,-74.509 60.491,-135 135,-135Z" style="fill:#f3ebd9;"/></g><path d="M960,280c82.787,-0 150,67.213 150,150c0,82.787 -67.213,150 -150,150c-82.787,-0 -150,-67.213 -150,-150c0,-82.787 67.213,-150 150,-150Zm0,3c81.132,-0 147,65.868 147,147c0,81.132 -65.868,147 -147,147c-81.132,0 -147,-65.868 -147,-147c-0,-81.132 65.868,-147 147,-147Z" style="fill:#ffebac;"/></g><g transform="matrix(1,5.55112e-17,1.54074e-33,1,62,152)"><g transform="matrix(0.880769,0.473546,-0.473546,0.880769,203.923,-426.782)"><text x="939.551px" y="189.068px" style="font-family:'BaskOldFace', 'Baskerville Old Face', serif;font-size:30px;">I</text></g><g transform="matrix(0.553708,0.832711,-0.832711,0.553708,622.693,-718.167)"><text x="976.675px" y="219.341px" style="font-family:'BaskOldFace', 'Baskerville Old Face', serif;font-size:30px;">I</text></g><g transform="matrix(0.472878,0.881128,-0.881128,0.472878,721.984,-747.849)"><text x="981.859px" y="227.003px" style="font-family:'BaskOldFace', 'Baskerville Old Face', serif;font-size:30px;">I</text></g><g transform="matrix(0.088973,0.996034,-0.996034,0.088973,1175.33,-751.379)"><text x="995.128px" y="263.808px" style="font-family:'BaskOldFace', 'Baskerville Old Face', serif;font-size:30px;">I</text></g><g transform="matrix(-0.00475693,0.999989,-0.999989,-0.00475693,1279.84,-721.608)"><text x="996.025px" y="273.077px" style="font-family:'BaskOldFace', 'Baskerville Old Face', serif;font-size:30px;">I</text></g><g transform="matrix(-0.098414,0.995146,-0.995146,-0.098414,1381.05,-680.465)"><text x="996.052px" y="282.372px" style="font-family:'BaskOldFace', 'Baskerville Old Face', serif;font-size:30px;">I</text></g><g transform="matrix(-0.480866,0.876794,-0.876794,-0.480866,1746.21,-388.321)"><text x="986.583px" y="320.289px" style="font-family:'BaskOldFace', 'Baskerville Old Face', serif;font-size:30px;">I</text></g><g transform="matrix(-0.601394,0.798953,-0.798953,-0.601394,1839.94,-255.499)"><text x="982.457px" y="328.733px" style="font-family:'BaskOldFace', 'Baskerville Old Face', serif;font-size:30px;">V</text></g><g transform="matrix(-0.874602,0.484841,-0.484841,-0.874602,1965.34,214.377)"><text x="954.302px" y="358.844px" style="font-family:'BaskOldFace', 'Baskerville Old Face', serif;font-size:30px;">V</text></g><g transform="matrix(-0.997733,0.0672902,-0.0672902,-0.997733,1853.15,692.763)"><text x="914.823px" y="375.091px" style="font-family:'BaskOldFace', 'Baskerville Old Face', serif;font-size:30px;">V</text></g><g transform="matrix(-0.997229,-0.074393,0.074393,-0.997229,1761.17,822.855)"><text x="896.003px" y="376.127px" style="font-family:'BaskOldFace', 'Baskerville Old Face', serif;font-size:30px;">I</text></g><g transform="matrix(-0.931315,-0.364215,0.364215,-0.931315,1546.1,1042.59)"><text x="871.827px" y="373.01px" style="font-family:'BaskOldFace', 'Baskerville Old Face', serif;font-size:30px;">V</text></g><g transform="matrix(-0.869421,-0.494072,0.494072,-0.869421,1413.93,1110.55)"><text x="854.379px" y="365.932px" style="font-family:'BaskOldFace', 'Baskerville Old Face', serif;font-size:30px;">I</text></g><g transform="matrix(-0.818751,-0.574148,0.574148,-0.818751,1328.75,1147.25)"><text x="846.246px" y="361.391px" style="font-family:'BaskOldFace', 'Baskerville Old Face', serif;font-size:30px;">I</text></g><g transform="matrix(-0.616802,-0.787119,0.787119,-0.616802,1060.67,1214.12)"><text x="827.093px" y="346.375px" style="font-family:'BaskOldFace', 'Baskerville Old Face', serif;font-size:30px;">V</text></g><g transform="matrix(-0.498008,-0.867172,0.867172,-0.498008,930.14,1206.2)"><text x="815.643px" y="331.381px" style="font-family:'BaskOldFace', 'Baskerville Old Face', serif;font-size:30px;">I</text></g><g transform="matrix(-0.413592,-0.910462,0.910462,-0.413592,847.398,1197.52)"><text x="810.957px" y="323.365px" style="font-family:'BaskOldFace', 'Baskerville Old Face', serif;font-size:30px;">I</text></g><g transform="matrix(-0.32481,-0.945779,0.945779,-0.32481,766.606,1182.11)"><text x="807.039px" y="314.914px" style="font-family:'BaskOldFace', 'Baskerville Old Face', serif;font-size:30px;">I</text></g><g transform="matrix(-0.0814896,-0.996674,0.996674,-0.0814896,570.55,1113.72)"><text x="800.769px" y="291.459px" style="font-family:'BaskOldFace', 'Baskerville Old Face', serif;font-size:30px;">I</text></g><g transform="matrix(0.0672902,-0.997733,0.997733,0.0672902,459.189,1060.52)"><text x="799.494px" y="282.158px" style="font-family:'BaskOldFace', 'Baskerville Old Face', serif;font-size:30px;">X</text></g><g transform="matrix(0.483849,-0.875152,0.875152,0.483849,201.912,827.732)"><text x="806.918px" y="240.192px" style="font-family:'BaskOldFace', 'Baskerville Old Face', serif;font-size:30px;">X</text></g><g transform="matrix(0.815729,-0.578434,0.578434,0.815729,32.3544,515.138)"><text x="832.545px" y="204.288px" style="font-family:'BaskOldFace', 'Baskerville Old Face', serif;font-size:30px;">X</text></g><g transform="matrix(0.893373,-0.449315,0.449315,0.893373,1.66942,397.669)"><text x="849.241px" y="192.817px" style="font-family:'BaskOldFace', 'Baskerville Old Face', serif;font-size:30px;">I</text></g><g transform="matrix(0.996478,-0.0838536,0.0838536,0.996478,-12.5232,69.3519)"><text x="878.865px" y="181.259px" style="font-family:'BaskOldFace', 'Baskerville Old Face', serif;font-size:30px;">X</text></g><g transform="matrix(0.99789,0.0649212,-0.0649212,0.99789,13.8979,-62.9781)"><text x="899.059px" y="179.859px" style="font-family:'BaskOldFace', 'Baskerville Old Face', serif;font-size:30px;">I</text></g><g transform="matrix(0.98728,0.158992,-0.158992,0.98728,41.0299,-147.061)"><text x="908.346px" y="180.391px" style="font-family:'BaskOldFace', 'Baskerville Old Face', serif;font-size:30px;">I</text></g></g><circle cx="960" cy="430" r="90" style="fill:url(#_Radial11);"/><path d="M960,340c49.672,-0 90,40.328 90,90c0,49.672 -40.328,90 -90,90c-49.672,-0 -90,-40.328 -90,-90c0,-49.672 40.328,-90 90,-90Zm0,2.7c48.182,-0 87.3,39.118 87.3,87.3c0,48.182 -39.118,87.3 -87.3,87.3c-48.182,0 -87.3,-39.118 -87.3,-87.3c-0,-48.182 39.118,-87.3 87.3,-87.3Z"/></g></g><g id="Top"><path d="M846.029,110.615c33.23,-11.601 59.878,-15.49 84.953,-18.123c10.365,-1.088 20.129,-1.298 29.963,-1.304c6.578,-0.004 13.092,-0.277 19.822,0.021c27.569,1.219 56.435,5.804 93.149,19.374c5.841,3.358 13.309,1.342 16.667,-4.499c3.358,-5.841 1.342,-13.309 -4.499,-16.667c-24.647,-20.905 -45.821,-36.209 -67.915,-46.577c-19.388,-9.097 -38.698,-13.991 -58.224,-14.073c-19.319,-0.082 -38.785,4.476 -58.253,13.571c-22.111,10.33 -43.056,25.949 -67.721,47.047c-5.858,3.328 -7.913,10.786 -4.586,16.644c3.328,5.858 10.786,7.913 16.644,4.586Z" style="fill:#9c5538;"/><path d="M1180,164.06c0,0 -79.857,52.943 -140,-44.06c-33.307,-53.72 -126.517,-54.072 -160,0c-60.002,96.899 -140,44.06 -140,44.06l0,55.94l440,0l0,-55.94Z" style="fill:url(#_Linear12);"/><path d="M740,120c10,0 40,24.443 40,41c0,16.557 -13.443,30 -30,30c-16.557,0 -30,-13.443 -30,-30c0,-16.557 10,-41 20,-41Z" style="fill:url(#_Linear13);"/><path d="M1180,129c-10,0 -40,24.443 -40,41c0,16.557 13.443,30 30,30c16.557,0 30,-13.443 30,-30c0,-16.557 -10,-41 -20,-41Z" style="fill:url(#_Linear14);"/><path d="M1140,200c-16.667,-6.667 -75.857,-6.587 -100,-20c-30,-16.667 -41.341,-80 -80,-80c-38.659,0 -50,63.333 -80,80c-24.143,13.413 -83.333,13.333 -100,20c-10.331,4.132 -0,20 -0,20l360,0c-0,0 10.331,-15.868 -0,-20Z" style="fill:url(#_Linear15);"/></g><circle cx="960" cy="430" r="8"/></g><defs><linearGradient id="_Linear1" x1="0" y1="0" x2="1" y2="0" gradientUnits="userSpaceOnUse" gradientTransform="matrix(18.9803,-0.865602,-1.38828,-30.4412,1119.27,878.216)"><stop offset="0" style="stop-color:#9c5538;stop-opacity:1"/><stop offset="1" style="stop-color:#693926;stop-opacity:1"/></linearGradient><linearGradient id="_Linear2" x1="0" y1="0" x2="1" y2="0" gradientUnits="userSpaceOnUse" gradientTransform="matrix(-18.9803,-0.865602,1.38828,-30.4412,801.251,879.216)"><stop offset="0" style="stop-color:#9c5538;stop-opacity:1"/><stop offset="1" style="stop-color:#693926;stop-opacity:1"/></linearGradient><linearGradient id="_Linear3" x1="0" y1="0" x2="1" y2="0" gradientUnits="userSpaceOnUse" gradientTransform="matrix(-8.09484e-14,-19.95,-26.3077,6.00169e-14,960,680.525)"><stop offset="0" style="stop-color:#9c5538;stop-opacity:1"/><stop offset="1" style="stop-color:#693926;stop-opacity:1"/></linearGradient><linearGradient id="_Linear4" x1="0" y1="0" x2="1" y2="0" gradientUnits="userSpaceOnUse" gradientTransform="matrix(1.04095e-15,17,-17,1.04095e-15,960,604)"><stop offset="0" style="stop-color:#804329;stop-opacity:1"/><stop offset="1" style="stop-color:#4a1d0a;stop-opacity:1"/></linearGradient><linearGradient id="_Linear5" x1="0" y1="0" x2="1" y2="0" gradientUnits="userSpaceOnUse" gradientTransform="matrix(-40,-38,38,-40,799,299)"><stop offset="0" style="stop-color:#804329;stop-opacity:1"/><stop offset="1" style="stop-color:#4a1d0a;stop-opacity:1"/></linearGradient><linearGradient id="_Linear6" x1="0" y1="0" x2="1" y2="0" gradientUnits="userSpaceOnUse" gradientTransform="matrix(42,-38,38,42,1118,297)"><stop offset="0" style="stop-color:#804329;stop-opacity:1"/><stop offset="1" style="stop-color:#4a1d0a;stop-opacity:1"/></linearGradient><linearGradient id="_Linear7" x1="0" y1="0" x2="1" y2="0" gradientUnits="userSpaceOnUse" gradientTransform="matrix(-38,4,-4,-38,767,436)"><stop offset="0" style="stop-color:#9c5538;stop-opacity:1"/><stop offset="1" style="stop-color:#77402b;stop-opacity:1"/></linearGradient><linearGradient id="_Linear8" x1="0" y1="0" x2="1" y2="0" gradientUnits="userSpaceOnUse" gradientTransform="matrix(38,4,4,-38,1149.74,435.908)"><stop offset="0" style="stop-color:#9c5538;stop-opacity:1"/><stop offset="1" style="stop-color:#77402b;stop-opacity:1"/></linearGradient><linearGradient id="_Linear9" x1="0" y1="0" x2="1" y2="0" gradientUnits="userSpaceOnUse" gradientTransform="matrix(-1.15801e-13,38,-38,-1.15801e-13,960,619)"><stop offset="0" style="stop-color:#9c5538;stop-opacity:1"/><stop offset="1" style="stop-color:#77402b;stop-opacity:1"/></linearGradient><linearGradient id="_Linear10" x1="0" y1="0" x2="1" y2="0" gradientUnits="userSpaceOnUse" gradientTransform="matrix(-1.25067e-13,-38,-40.9231,1.15443e-13,960,261)"><stop offset="0" style="stop-color:#9c5538;stop-opacity:1"/><stop offset="1" style="stop-color:#77402b;stop-opacity:1"/></linearGradient><radialGradient id="_Radial11" cx="0" cy="0" r="1" gradientUnits="userSpaceOnUse" gradientTransform="matrix(2.25335e-13,-90,90,2.30331e-13,959,430)"><stop offset="0" style="stop-color:#fff;stop-opacity:1"/><stop offset="0.61" style="stop-color:#faf7f3;stop-opacity:1"/><stop offset="0.82" style="stop-color:#ede4d7;stop-opacity:1"/><stop offset="1" style="stop-color:#dfcfb9;stop-opacity:1"/></radialGradient><linearGradient id="_Linear12" x1="0" y1="0" x2="1" y2="0" gradientUnits="userSpaceOnUse" gradientTransform="matrix(1.01033e-14,165,-165,1.01033e-14,960,54)"><stop offset="0" style="stop-color:#9c5538;stop-opacity:1"/><stop offset="0.51" style="stop-color:#8c4a2e;stop-opacity:1"/><stop offset="1" style="stop-color:#5b250f;stop-opacity:1"/></linearGradient><linearGradient id="_Linear13" x1="0" y1="0" x2="1" y2="0" gradientUnits="userSpaceOnUse" gradientTransform="matrix(22,46,-46,22,749,155)"><stop offset="0" style="stop-color:#804329;stop-opacity:1"/><stop offset="1" style="stop-color:#4a1d0a;stop-opacity:1"/></linearGradient><linearGradient id="_Linear14" x1="0" y1="0" x2="1" y2="0" gradientUnits="userSpaceOnUse" gradientTransform="matrix(-22,46,46,22,1171,164)"><stop offset="0" style="stop-color:#804329;stop-opacity:1"/><stop offset="1" style="stop-color:#4a1d0a;stop-opacity:1"/></linearGradient><linearGradient id="_Linear15" x1="0" y1="0" x2="1" y2="0" gradientUnits="userSpaceOnUse" gradientTransform="matrix(1.33487e-14,-218,218,1.33487e-14,960,218)"><stop offset="0" style="stop-color:#4e2211;stop-opacity:1"/><stop offset="0.43" style="stop-color:#673522;stop-opacity:1"/><stop offset="1" style="stop-color:#9f5e46;stop-opacity:1"/></linearGradient></defs></svg>